HIERARCHY
ROOT hip
{
	OFFSET 0.000000 0.000000 0.000000 
	CHANNELS 6 Xposition Yposition Zposition Xrotation Zrotation Yrotation
	JOINT abdomen
	{
		OFFSET 0.000000 3.402643 0.000000 
		CHANNELS 3 Xrotation Zrotation Yrotation
		JOINT chest
		{
			OFFSET 0.000000 8.438565 -0.680529 
			CHANNELS 3 Xrotation Zrotation Yrotation
			JOINT neck
			{
				OFFSET 0.000000 10.207942 -0.272212 
				CHANNELS 3 Xrotation Zrotation Yrotation
				JOINT head
				{
					OFFSET 0.000000 3.130431 0.000000 
					CHANNELS 3 Xrotation Zrotation Yrotation
					End Site
					{
						OFFSET 0.000000 3.130435 0.000000 
					}
				}
			}
			JOINT lCollar
			{
				OFFSET 3.470700 6.669187 -0.816635 
				CHANNELS 3 Yrotation Zrotation Xrotation
				JOINT lShldr
				{
					OFFSET 3.198488 0.000000 0.000000 
					CHANNELS 3 Zrotation Yrotation Xrotation
					JOINT lForeArm
					{
						OFFSET 10.139888 0.000000 0.000000 
						CHANNELS 3 Yrotation Zrotation Xrotation
						JOINT lHand
						{
							OFFSET 8.370511 0.000000 0.000000 
							CHANNELS 3 Zrotation Yrotation Xrotation
							End Site
							{
								OFFSET 4.083176 0.000000 0.000000 
							}
						}
					}
				}
			}
			JOINT rCollar
			{
				OFFSET -3.470700 6.669187 -0.816635 
				CHANNELS 3 Yrotation Zrotation Xrotation
				JOINT rShldr
				{
					OFFSET -3.198488 0.000000 0.000000 
					CHANNELS 3 Zrotation Yrotation Xrotation
					JOINT rForeArm
					{
						OFFSET -10.139888 0.000000 0.000000 
						CHANNELS 3 Yrotation Zrotation Xrotation
						JOINT rHand
						{
							OFFSET -8.370511 0.000000 0.000000 
							CHANNELS 3 Zrotation Yrotation Xrotation
							End Site
							{
								OFFSET -4.083176 0.000000 0.000000 
							}
						}
					}
				}
			}
		}
	}
	JOINT lThigh
	{
		OFFSET 5.308129 -1.633274 1.361059 
		CHANNELS 3 Xrotation Zrotation Yrotation
		JOINT lShin
		{
			OFFSET -2.041588 -20.007561 0.000000 
			CHANNELS 3 Xrotation Zrotation Yrotation
			JOINT lFoot
			{
				OFFSET 0.000000 -19.190928 -1.224953 
				CHANNELS 3 Xrotation Yrotation Zrotation
				End Site
				{
					OFFSET 0.000000 -2.449906 4.627600 
				}
			}
		}
	}
	JOINT rThigh
	{
		OFFSET -5.308129 -1.633274 1.361059 
		CHANNELS 3 Xrotation Zrotation Yrotation
		JOINT rShin
		{
			OFFSET 2.041588 -20.007561 0.000000 
			CHANNELS 3 Xrotation Zrotation Yrotation
			JOINT rFoot
			{
				OFFSET 0.000000 -19.190928 -1.224953 
				CHANNELS 3 Xrotation Yrotation Zrotation
				End Site
				{
					OFFSET 0.000000 -2.449906 4.627600 
				}
			}
		}
	}
}
MOTION
Frames: 11
Frame Time: 0.016667
-2.564174 44.049290 -4.277805 -24.282108 -18.182936 -25.073093 46.910309 21.897745 17.501856 6.072081 -1.292398 9.454532 21.065495 -7.132130 -2.508243 21.270985 -8.736791 15.070271 -0.417631 -8.965019 -0.473398 -29.090090 18.382078 -11.818779 -99.113640 5.000000 3.449996 -29.206139 -12.015251 36.160801 16.694235 -3.693702 0.193759 62.971142 16.461809 8.373541 122.288872 3.820722 -1.283916 23.130486 -12.138877 10.135336 -20.742924 25.239408 -22.336323 47.939827 -8.831802 -10.708228 -16.043018 -3.504323 -23.181776 22.487770 -12.685417 -18.832525 64.973457 0.690147 1.429499 -45.189438 -27.624802 2.078392 
-2.705003 44.320549 -4.478628 -24.341608 -18.331406 -25.366720 46.498505 21.564695 17.305422 6.068780 -1.399048 9.542619 20.090292 -7.204948 -2.397995 20.916281 -8.498305 15.367897 0.111530 -9.862318 -0.521252 -29.144899 17.528580 -11.883962 -99.163315 5.000000 3.422584 -28.945967 -12.374512 36.559891 16.480549 -4.025288 0.210916 63.362389 18.213388 10.204773 122.159248 3.240137 -0.932699 22.528444 -12.127437 10.795168 -19.471249 25.585323 -22.439657 45.874458 -8.980389 -10.144258 -15.194238 -3.294968 -23.063507 22.885870 -12.284205 -18.660257 63.830025 0.856156 1.739611 -45.003723 -27.523567 2.200339 
-2.845829 44.591812 -4.679454 -24.396126 -18.477184 -25.669619 46.079124 21.232573 17.106419 6.055349 -1.505656 9.630711 19.103794 -7.276354 -2.278164 20.552996 -8.270032 15.654662 0.649576 -10.769362 -0.569781 -29.200903 16.678022 -11.940158 -99.223946 5.000000 3.397610 -28.680780 -12.732204 36.956234 16.266962 -4.356875 0.228067 63.818188 19.956993 12.059929 122.042900 2.639979 -0.579309 21.932564 -12.092414 11.448874 -18.164366 25.951324 -22.537584 43.806320 -9.097514 -9.595111 -14.388755 -3.083591 -22.952772 23.274963 -11.893067 -18.487415 62.706211 1.013456 2.032643 -44.792103 -27.435886 2.328882 
-2.968920 44.857845 -4.866711 -24.321373 -18.626905 -26.122438 45.633770 20.935085 16.856054 5.974695 -1.525030 9.640727 18.131104 -7.267748 -2.149607 20.237946 -8.239874 16.166613 0.867954 -11.364277 -0.602362 -29.705870 16.278580 -12.109625 -99.435532 5.000000 3.458040 -28.429222 -13.062555 37.257423 16.081728 -4.434895 0.232101 64.156128 21.773127 14.079087 121.829773 1.918880 -0.132917 21.396202 -12.033866 11.889483 -16.950241 26.355606 -22.491667 41.844799 -9.201900 -9.025247 -13.552711 -2.737431 -22.904476 23.537300 -11.522051 -18.181793 61.475048 1.207839 2.317310 -44.507408 -27.376732 2.265081 
-3.087571 45.122566 -5.050571 -24.225992 -18.776659 -26.618092 45.186222 20.648071 16.583981 5.877039 -1.525030 9.630962 17.166611 -7.248050 -2.012930 19.942499 -8.254205 16.719952 1.018505 -11.881164 -0.629031 -30.316607 15.978751 -12.307040 -99.700760 5.000000 3.543512 -28.176455 -13.371325 37.528393 15.896259 -4.454401 0.233109 64.519012 23.600924 16.147474 121.602364 1.162714 0.334130 20.878990 -11.962144 12.275447 -15.714391 26.771610 -22.358904 39.878620 -9.233980 -8.477893 -12.757837 -2.381066 -22.893284 23.801311 -11.170639 -17.849874 60.243053 1.422733 2.608547 -44.217960 -27.275064 2.144544 
-3.195789 45.376850 -5.222432 -24.072479 -18.950226 -27.168789 44.773243 20.392065 16.327045 5.784426 -1.486281 9.562362 16.111506 -7.215838 -1.858549 19.648197 -8.330637 17.327156 1.104376 -12.241816 -0.638078 -31.230312 15.810578 -12.590972 -100.065804 5.000000 3.684615 -27.973705 -13.649002 37.663441 15.652396 -4.522668 0.236639 64.991592 25.370890 18.199121 121.362000 0.461103 0.759365 20.420877 -11.847980 12.408349 -14.498912 27.234108 -22.060717 37.910107 -9.201384 -7.900295 -11.817485 -2.300651 -22.793137 23.989614 -10.839248 -17.438900 59.049881 1.627870 2.882779 -43.837952 -27.223572 2.098913 
-3.288353 45.615486 -5.376296 -23.857567 -19.151583 -27.802271 44.410061 20.161457 16.081278 5.708913 -1.389380 9.396142 14.927768 -7.162853 -1.697510 19.357035 -8.514639 17.986921 1.093599 -12.329582 -0.644684 -32.614658 15.820687 -13.025822 -100.585037 5.000000 3.912104 -27.830992 -13.871711 37.591114 15.350148 -4.639698 0.242688 65.574326 27.056606 20.199312 121.097298 -0.167939 1.137963 20.078293 -11.683149 12.158207 -13.230842 27.723372 -21.476591 35.944813 -9.044667 -7.251421 -10.741256 -2.477603 -22.492809 24.116627 -10.526754 -16.970562 57.915092 1.823131 3.141637 -43.352402 -27.092962 2.188862 
-3.380914 45.854107 -5.530159 -23.638548 -19.354696 -28.451258 44.039009 19.941809 15.833264 5.633067 -1.292442 9.239695 13.752831 -7.108385 -1.526888 19.061264 -8.695971 18.649700 1.072936 -12.427102 -0.649721 -33.998180 15.819295 -13.467975 -101.115837 5.000000 4.147732 -27.689861 -14.089638 37.528687 15.038147 -4.756729 0.248738 66.237991 28.718016 22.254932 120.827026 -0.800713 1.510260 19.725136 -11.525594 11.897786 -11.937341 28.187838 -20.856556 34.016182 -8.844086 -6.651540 -9.678417 -2.589882 -22.194803 24.241648 -10.204500 -16.478846 56.790321 2.038072 3.368617 -42.877686 -27.032394 2.246283 
-3.435659 46.060143 -5.661852 -23.346344 -19.491848 -29.193966 43.767391 19.715513 15.560187 5.537477 -1.098311 9.014518 12.589647 -7.189287 -1.405620 18.530027 -8.955363 19.355709 1.053291 -12.436854 -0.650225 -35.672546 15.848819 -13.988301 -101.628761 5.000000 4.412332 -27.685781 -14.331470 37.355457 14.784409 -4.795739 0.250754 66.797394 30.124607 24.065100 120.687035 -1.398036 1.869105 19.876877 -11.699622 12.029819 -10.730323 28.631092 -20.036163 32.084190 -8.647528 -6.089464 -8.395288 -2.769941 -21.927404 24.218805 -10.076839 -16.080078 55.811020 2.243039 3.606318 -42.513302 -26.911274 2.038284 
-3.490397 46.266163 -5.793536 -23.052492 -19.624640 -29.927200 43.495972 19.502232 15.286036 5.442018 -0.894377 8.789617 11.435868 -7.270176 -1.284363 18.001675 -9.210946 20.063547 1.023995 -12.436856 -0.650225 -37.351662 15.857409 -14.510520 -102.142555 5.000000 4.685225 -27.680393 -14.573455 37.179920 14.540396 -4.824996 0.252266 67.425026 31.509548 25.924883 120.550514 -1.988741 2.219957 20.027956 -11.869014 12.175526 -9.507068 29.047817 -19.233276 30.171291 -8.452250 -5.500284 -7.136572 -2.916585 -21.667124 24.197712 -9.941670 -15.667943 54.831390 2.453462 3.823241 -42.143089 -26.809305 1.839569 
-3.524805 46.458111 -5.900964 -22.770666 -19.691683 -30.607430 43.227390 19.290785 14.994349 5.322559 -0.729252 8.564765 10.316746 -7.270968 -1.154383 17.517925 -9.429091 20.722004 0.905319 -12.563630 -0.656771 -38.666809 15.922399 -14.988584 -102.651825 5.000000 4.932477 -27.545088 -14.835198 36.928867 14.099658 -4.710346 0.236778 67.980858 32.810341 27.727919 120.369568 -2.588572 2.542085 20.217861 -11.917235 12.436293 -8.327145 29.391291 -18.414669 28.311874 -8.267709 -4.996905 -5.957695 -3.043181 -21.479668 24.154776 -9.901354 -15.254488 53.920578 2.674567 3.998748 -41.716496 -26.652727 1.732507 
